<?xml version="1.0" standalone="no"?>
<!DOCTYPE svg PUBLIC "-//W3C//DTD SVG 20010904//EN"
 "http://www.w3.org/TR/2001/REC-SVG-20010904/DTD/svg10.dtd">
<svg version="1.0" xmlns="http://www.w3.org/2000/svg"
 width="155.000000pt" height="155.000000pt" viewBox="0 0 155.000000 155.000000"
 preserveAspectRatio="xMidYMid meet">
<metadata>
Created by potrace 1.11, written by Peter Selinger 2001-2013
</metadata>
<g transform="translate(0.000000,155.000000) scale(0.100000,-0.100000)"
fill="#000000" stroke="none">
<path d="M0 1251 c0 -216 3 -302 12 -307 6 -4 8 -3 5 3 -4 6 4 18 18 27 25 16
25 16 25 -12 0 -15 6 -34 12 -41 11 -11 11 -13 0 -7 -6 4 -17 4 -24 0 -8 -5
-6 -9 7 -14 11 -4 14 -9 8 -13 -5 -3 -18 0 -29 7 -15 11 -16 17 -6 29 11 13
10 15 -7 10 -20 -5 -31 -43 -12 -43 15 0 20 -41 6 -47 -12 -4 -14 -77 -15
-424 l0 -419 167 2 c159 3 168 4 171 23 13 83 53 103 48 25 l-3 -51 83 2 83 2
-14 28 c-18 34 -19 42 -2 34 6 -4 4 0 -6 8 -26 21 -21 28 21 25 39 -2 67 -21
57 -38 -3 -5 -1 -10 4 -10 6 0 11 -9 11 -19 0 -28 18 -31 166 -31 l133 0 16
30 c8 16 15 36 15 45 0 9 4 14 8 11 4 -2 9 4 9 15 3 33 -20 16 -47 -37 -18
-35 -32 -50 -49 -52 -22 -2 -22 -1 8 27 17 16 36 43 42 60 6 17 16 31 23 31
25 0 136 -42 136 -52 0 -5 4 -7 10 -3 11 7 134 -47 144 -64 5 -7 40 -11 93
-11 80 0 85 1 80 20 -3 13 0 20 9 20 8 0 19 -9 26 -20 10 -15 24 -20 60 -20
l48 0 0 148 c0 145 -5 192 -20 192 -15 0 -18 -41 -4 -54 11 -12 10 -16 -10
-30 -23 -14 -25 -14 -38 7 -16 24 -22 77 -10 77 4 0 13 -5 20 -12 7 -7 12 -8
12 -2 0 6 -9 19 -20 29 -18 17 -19 20 -5 28 13 7 14 12 4 23 -9 11 -5 28 15
79 15 37 24 70 21 75 -3 5 -1 11 5 15 5 3 10 1 10 -5 0 -6 5 -8 10 -5 8 5 7
11 -1 21 -6 7 -15 11 -19 9 -5 -3 -8 8 -8 24 1 19 5 28 14 24 7 -2 10 -11 8
-18 -3 -7 -1 -16 4 -19 6 -3 9 14 9 42 -1 38 -7 52 -29 72 -15 14 -30 40 -33
59 -6 35 -6 35 15 16 20 -18 20 -18 20 4 0 12 -4 20 -9 16 -18 -11 -23 16 -5
29 12 10 14 15 5 20 -9 6 -7 12 6 22 17 12 16 14 -12 15 -16 2 -38 3 -47 2
-11 0 -18 8 -18 19 0 19 15 24 25 8 13 -21 27 -10 21 16 -5 17 -3 23 4 19 5
-3 10 -2 10 4 0 5 -5 13 -10 16 -8 5 -7 11 1 21 8 10 8 14 1 14 -6 0 -9 7 -6
15 9 23 19 18 20 -10 2 -26 20 -55 34 -55 4 0 9 131 9 290 l2 290 -243 -1
c-166 0 -235 -3 -219 -10 13 -5 21 -12 18 -15 -3 -3 -19 2 -36 11 -27 13 -67
16 -260 14 -187 -1 -229 -4 -224 -14 2 -8 10 -12 17 -9 7 3 13 -2 13 -10 0 -8
-7 -18 -14 -20 -8 -3 -12 -2 -9 3 3 5 -8 14 -24 20 -17 5 -30 12 -30 15 0 3 7
3 15 0 8 -4 15 -1 15 4 0 7 -93 11 -285 12 l-285 1 0 -300z m546 254 c20 -15
13 -18 -23 -9 -13 4 -23 10 -23 15 0 14 24 11 46 -6z m-161 -45 c-32 -33 -43
-36 -68 -17 -13 9 -14 16 -6 27 9 13 10 12 5 -2 -8 -25 25 -24 55 2 37 30 46
24 14 -10z m-62 -33 c4 3 7 -3 7 -14 0 -11 -7 -26 -15 -33 -22 -18 -39 1 -31
35 5 21 10 24 20 16 7 -6 16 -8 19 -4z m588 -14 c13 -16 12 -17 -3 -4 -10 7
-18 15 -18 17 0 8 8 3 21 -13z m23 -39 c3 -8 2 -12 -4 -9 -6 3 -10 10 -10 16
0 14 7 11 14 -7z m271 -6 c6 -6 -1 -7 -20 -2 -16 3 -34 11 -40 16 -6 6 1 7 20
2 17 -3 35 -11 40 -16z m55 -29 c0 -6 -4 -7 -10 -4 -5 3 -10 11 -10 16 0 6 5
7 10 4 6 -3 10 -11 10 -16z m-308 -16 c2 -40 3 -47 9 -58 4 -5 7 -27 7 -47 1
-36 -10 -49 -23 -28 -4 6 -11 7 -17 4 -8 -5 -9 -1 -4 12 14 34 19 84 9 84 -5
0 -9 10 -7 23 1 12 3 25 3 30 2 20 21 3 23 -20z m-687 -13 c-3 -5 -12 -10 -18
-10 -7 0 -6 4 3 10 19 12 23 12 15 0z m110 -10 c3 -5 -1 -10 -10 -10 -9 0 -13
5 -10 10 3 6 8 10 10 10 2 0 7 -4 10 -10z m-195 -14 c0 -15 -24 -16 -37 -1 -4
4 -3 5 4 1 6 -3 14 -2 18 4 9 14 15 12 15 -4z m745 -16 c3 -5 1 -10 -4 -10 -6
0 -11 5 -11 10 0 6 2 10 4 10 3 0 8 -4 11 -10z m-784 -22 c-1 -5 -3 -7 -4 -5
-2 1 -11 -4 -20 -12 -18 -15 -20 -12 -11 14 6 15 36 18 35 3z m44 -48 c-3 -5
1 -11 7 -14 7 -3 -5 -5 -26 -3 -26 1 -41 -3 -44 -12 -3 -8 0 -11 7 -7 6 4 11
3 11 -2 0 -5 14 -7 30 -4 17 2 30 0 30 -5 0 -6 -15 -10 -32 -9 -30 1 -35 -4
-60 -54 -26 -54 -27 -54 -34 -25 -5 19 -3 30 4 33 7 2 12 10 12 18 0 9 5 12
11 8 7 -4 9 0 5 12 -6 21 14 69 27 63 5 -2 13 4 19 14 7 14 13 16 24 6 7 -6
12 -15 9 -19z m115 -10 c0 -5 -5 -10 -11 -10 -5 0 -7 5 -4 10 3 6 8 10 11 10
2 0 4 -4 4 -10z m637 -42 c-3 -8 -6 -5 -6 6 -1 11 2 17 5 13 3 -3 4 -12 1 -19z
m39 -23 c9 -39 0 -30 -15 15 -6 19 -7 30 -2 25 5 -6 13 -23 17 -40z m434 25
c-6 -11 -13 -20 -16 -20 -2 0 0 9 6 20 6 11 13 20 16 20 2 0 0 -9 -6 -20z m36
-39 c-1 -17 2 -28 6 -25 4 3 8 -2 8 -10 0 -22 -25 -9 -38 19 -9 20 -8 26 6 34
9 6 18 11 19 11 0 0 0 -13 -1 -29z m-1046 -16 c0 -8 -4 -15 -10 -15 -5 0 -10
7 -10 15 0 8 5 15 10 15 6 0 10 -7 10 -15z m-336 -64 c-2 -2 -11 2 -19 9 -13
11 -13 15 -3 21 8 5 15 2 19 -9 4 -9 5 -19 3 -21z m373 19 c13 0 13 -3 3 -15
-10 -12 -10 -15 2 -15 27 0 4 -69 -23 -70 -3 0 -13 18 -22 40 -15 40 -15 41 4
35 24 -8 25 3 2 22 -17 14 -17 14 0 9 10 -3 26 -6 34 -6z m-117 -20 c0 -5 -7
-7 -15 -4 -8 4 -15 8 -15 10 0 2 7 4 15 4 8 0 15 -4 15 -10z m176 -36 c-3 -8
-1 -14 3 -14 5 0 11 5 13 12 2 6 10 8 16 4 22 -14 12 -24 -28 -28 -22 -2 -40
0 -40 4 0 5 5 8 11 8 5 0 7 5 4 10 -3 6 -1 10 5 10 6 0 8 5 4 12 -5 7 -3 8 5
4 7 -5 10 -14 7 -22z m-126 -78 c0 -3 -4 -8 -10 -11 -5 -3 -10 -1 -10 4 0 6 5
11 10 11 6 0 10 -2 10 -4z m494 -91 c-3 -8 -12 -11 -20 -8 -15 5 -18 16 -8 26
11 10 33 -4 28 -18z m-124 5 c0 -5 -4 -10 -9 -10 -6 0 -13 5 -16 10 -3 6 1 10
9 10 9 0 16 -4 16 -10z m20 -36 c0 -3 -7 -12 -15 -20 -13 -14 -15 -13 -15 5 0
12 6 21 15 21 8 0 15 -3 15 -6z m105 -59 c12 -42 29 -69 75 -117 33 -34 60
-71 60 -81 0 -17 5 -19 34 -14 18 3 38 1 43 -4 6 -6 8 1 5 19 -3 26 0 30 41
46 27 10 63 36 87 62 23 25 43 44 44 42 2 -2 7 -39 13 -83 9 -73 8 -84 -12
-130 -12 -27 -33 -59 -46 -71 -23 -20 -273 -174 -283 -174 -2 0 -10 16 -16 35
-8 23 -26 45 -50 61 -43 29 -46 33 -55 98 -4 25 -12 46 -17 46 -6 0 -5 6 2 15
9 11 11 49 9 132 -4 125 7 155 31 83 7 -23 17 -43 22 -46 13 -8 9 40 -7 86
-18 50 -18 50 -6 50 5 0 17 -25 26 -55z m623 -40 c-3 -3 -9 2 -12 12 -6 14 -5
15 5 6 7 -7 10 -15 7 -18z m-751 -96 c-9 -68 -9 -80 6 -103 10 -14 13 -26 8
-26 -6 0 -13 -27 -17 -59 -6 -55 -9 -62 -45 -85 -33 -22 -39 -24 -47 -10 -8
14 -10 14 -22 -1 -12 -15 -12 -16 6 -13 16 2 18 -2 16 -26 -2 -16 -9 -37 -15
-46 -11 -15 -22 -13 -121 32 -59 27 -119 56 -131 64 -44 29 -57 76 -60 215
l-2 129 41 -44 c40 -43 100 -76 137 -76 11 0 19 -7 19 -15 0 -8 5 -16 10 -16
6 -1 16 -2 23 -3 6 -1 19 1 28 5 12 6 16 3 16 -9 0 -75 3 -83 23 -77 11 4 32
8 48 10 15 2 29 4 31 4 2 1 -1 7 -7 14 -5 6 -13 31 -17 55 -5 34 -11 42 -26
40 -10 -2 -18 0 -18 4 0 9 78 86 82 82 2 -2 12 5 22 16 10 11 19 19 21 18 1
-2 -3 -37 -9 -79z m707 46 c7 -19 -31 -125 -45 -125 -8 0 -7 59 1 80 2 3 2 8
1 13 0 4 4 7 9 7 6 0 10 9 10 20 0 24 15 27 24 5z m27 -46 c6 -12 7 -24 3 -28
-18 -12 -33 -50 -23 -53 11 -4 1 -38 -11 -38 -17 0 -16 36 2 78 10 24 16 48
12 53 -3 5 -3 9 0 9 3 0 10 -10 17 -21z m-1281 -99 c0 -21 -5 -30 -16 -30 -8
0 -13 -4 -9 -9 3 -5 0 -13 -6 -16 -6 -5 -9 0 -8 11 2 11 0 25 -4 32 -12 19 2
35 19 21 11 -9 14 -8 14 5 0 9 2 16 5 16 3 0 5 -13 5 -30z m-140 -41 c0 -18
-10 -8 -25 24 l-16 32 21 -24 c11 -13 20 -27 20 -32z m60 -10 c0 -4 -9 -5 -19
-2 -11 3 -19 13 -18 24 1 17 3 17 19 2 10 -9 18 -19 18 -24z m30 27 c0 -11
-19 -15 -25 -6 -3 5 1 10 9 10 9 0 16 -2 16 -4z m-41 -91 c0 -5 -6 1 -14 15
-8 14 -14 30 -14 35 0 6 6 -1 14 -15 8 -14 14 -29 14 -35z m1157 23 c-2 -7
-13 -44 -24 -83 -41 -135 -40 -134 -9 -208 16 -38 27 -71 24 -73 -2 -2 -31 9
-65 26 -33 16 -65 30 -69 30 -4 0 -19 6 -33 13 -14 7 -45 19 -70 27 -84 26
-102 58 -47 86 63 32 222 133 257 163 41 35 40 35 36 19z m149 2 c8 -13 -5
-13 -25 0 -13 8 -13 10 2 10 9 0 20 -4 23 -10z m-1232 -61 c-4 -15 -8 -17 -14
-8 -8 14 -3 29 11 29 4 0 6 -9 3 -21z m1244 15 c-3 -3 -12 -4 -19 -1 -8 3 -5
6 6 6 11 1 17 -2 13 -5z m19 -52 c-4 -3 -14 2 -24 12 -16 18 -16 18 6 6 13 -6
21 -14 18 -18z m-940 -66 c65 -29 119 -57 121 -63 2 -6 -23 -13 -59 -17 -71
-8 -156 -29 -187 -46 -24 -12 -25 -10 -10 24 11 24 3 98 -18 171 -5 19 -5 19
15 2 11 -10 73 -42 138 -71z m968 -21 c-5 16 -4 17 5 5 6 -8 11 -23 11 -32 0
-24 -25 -13 -39 18 -16 36 -14 39 9 13 18 -21 19 -22 14 -4z m43 -88 c0 -8 -6
-14 -13 -14 -7 0 -10 6 -7 14 7 17 20 17 20 0z m-917 -6 c0 -6 -4 -13 -10 -16
-5 -3 -10 0 -10 7 0 10 -2 10 -9 -1 -6 -9 -19 -12 -40 -8 -19 4 -31 2 -31 -4
0 -6 -4 -7 -10 -4 -18 11 -10 24 18 28 53 8 92 7 92 -2z m84 -90 c13 -11 14
-16 4 -22 -15 -9 -48 42 -48 74 1 19 3 18 14 -8 7 -17 21 -36 30 -44z m-144
-15 c0 -3 -4 -8 -10 -11 -5 -3 -10 -1 -10 4 0 6 5 11 10 11 6 0 10 -2 10 -4z"/>
<path d="M898 544 c-3 -5 -9 -28 -13 -50 -6 -41 -6 -42 22 -40 30 3 33 6 33
35 0 23 -35 68 -42 55z"/>
<path d="M814 505 c-7 -18 12 -45 32 -45 18 0 26 17 19 40 -7 23 -43 27 -51 5z"/>
<path d="M479 523 c-13 -16 -12 -17 4 -4 16 13 21 21 13 21 -2 0 -10 -8 -17
-17z"/>
<path d="M692 518 c-14 -14 -16 -45 -3 -52 16 -10 41 5 41 24 0 26 -23 43 -38
28z"/>
<path d="M1016 162 c-3 -6 -1 -14 5 -17 15 -10 25 3 12 16 -7 7 -13 7 -17 1z"/>
<path d="M1062 151 c-11 -7 -10 -9 3 -14 9 -4 14 -3 10 2 -3 5 1 12 7 14 7 3
9 6 3 6 -5 0 -16 -3 -23 -8z"/>
<path d="M1152 126 c1 -29 3 -32 15 -21 17 17 16 23 -2 41 -13 13 -14 11 -13
-20z"/>
<path d="M1193 111 c0 -11 5 -18 9 -15 4 3 5 11 1 19 -7 21 -12 19 -10 -4z"/>
<path d="M1542 908 c-1 -14 -5 -35 -8 -45 -5 -14 -4 -15 5 -7 7 7 11 26 8 45
-3 28 -4 29 -5 7z"/>
<path d="M1530 833 c0 -5 5 -15 10 -23 8 -12 10 -11 10 8 0 12 -4 22 -10 22
-5 0 -10 -3 -10 -7z"/>
<path d="M1531 456 c-6 -8 -11 -18 -10 -22 3 -21 -15 -54 -29 -54 -13 0 -12
-3 4 -18 10 -10 27 -17 37 -14 14 3 17 16 17 63 0 33 -2 59 -4 59 -2 0 -9 -6
-15 -14z"/>
<path d="M1018 61 c8 -4 13 -11 13 -15 -3 -22 2 -28 8 -11 10 25 5 35 -17 35
-13 0 -14 -2 -4 -9z"/>
<path d="M1052 38 c-2 -25 0 -27 12 -16 8 7 12 16 9 21 -2 4 1 7 6 7 14 0 14
-6 1 -31 -10 -17 -7 -19 34 -19 34 0 46 4 49 18 4 16 5 16 6 0 0 -10 7 -18 14
-18 27 0 27 14 0 31 -21 14 -29 15 -35 6 -6 -9 -10 -9 -17 2 -5 7 -14 11 -20
7 -6 -4 -9 -2 -5 7 3 10 -3 14 -24 14 -24 0 -28 -5 -30 -29z"/>
</g>
</svg>
